 <svg  version="1.0" xmlns="http://www.w3.org/2000/svg"  width="230.000000pt" height="300.000000pt" viewBox="0 0 230.000000 300.000000"  preserveAspectRatio="xMidYMid meet">  <g transform="translate(0.000000,300.000000) scale(0.100000,-0.100000)" fill="#9333ea" stroke="none"> <path d="M456 2761 c-9 -10 -26 -45 -37 -77 -43 -122 -52 -198 -58 -503 l-6 -294 -61 -13 c-63 -13 -118 -36 -129 -54 -11 -18 4 -58 24 -65 11 -3 47 3 80 15 87 29 88 29 96 -37 17 -140 77 -257 177 -348 l55 -51 -55 -69 c-62 -79 -122 -198 -147 -295 -18 -71 -34 -494 -21 -563 9 -47 38 -65 71 -43 l23 15 4 278 c4 269 5 280 30 350 34 95 67 151 131 219 l52 55 69 -26 c121 -46 199 -58 366 -59 169 -1 258 13 379 61 l65 26 53 -57 c65 -70 126 -193 147 -298 12 -57 16 -138 16 -312 0 -200 2 -237 16 -250 20 -20 38 -20 59 1 15 14 16 46 12 297 -3 250 -6 288 -24 341 -43 125 -95 219 -160 286 l-35 37 71 69 c85 85 135 180 159 308 11 56 21 85 29 85 8 0 41 -9 74 -20 33 -12 69 -18 80 -15 20 7 35 47 24 65 -11 18 -66 41 -129 54 l-61 13 -6 279 c-6 286 -20 399 -64 525 -28 78 -40 89 -93 89 -110 0 -225 -61 -342 -181 l-69 -72 -57 12 c-72 14 -185 14 -272 0 l-67 -11 -76 75 c-81 80 -165 139 -231 163 -59 21 -141 19 -162 -5z m175 -103 c47 -24 91 -59 166 -135 l102 -104 53 16 c114 34 201 31 385 -12 15 -4 28 3 45 23 113 138 223 223 309 239 l36 7 21 -74 c36 -122 42 -191 42 -469 l0 -267 -47 -7 c-64 -9 -181 -55 -243 -95 -41 -26 -50 -37 -50 -61 0 -21 7 -32 24 -40 21 -10 32 -6 83 25 57 35 136 67 202 81 l34 7 -6 -58 c-18 -200 -169 -360 -394 -418 -152 -40 -382 -40 -536 -1 -70 18 -179 71 -234 112 -85 65 -149 187 -168 322 l-6 43 38 -7 c65 -12 145 -44 206 -81 51 -31 62 -35 83 -25 31 14 32 53 3 80 -35 33 -160 90 -235 107 -38 9 -75 18 -83 20 -23 7 -9 540 17 659 28 125 37 145 65 145 13 0 53 -14 88 -32z"/> <path d="M865 2017 c-60 -51 -20 -147 61 -147 74 0 112 93 59 145 -32 33 -84 33 -120 2z"/> <path d="M1265 2015 c-54 -53 -16 -145 60 -145 25 0 44 8 60 25 17 16 25 35 25 60 0 25 -8 44 -25 60 -16 17 -35 25 -60 25 -25 0 -44 -8 -60 -25z"/> <path d="M1035 1775 c-41 -40 -33 -69 31 -112 l55 -37 33 18 c44 24 86 64 86 82 0 9 -13 29 -29 45 -26 26 -36 29 -91 29 -51 0 -65 -4 -85 -25z"/> </g> </svg> 