 <svg  version="1.0" xmlns="http://www.w3.org/2000/svg"  width="205.000000pt" height="300.000000pt" viewBox="0 0 205.000000 300.000000"  preserveAspectRatio="xMidYMid meet">  <g transform="translate(0.000000,300.000000) scale(0.100000,-0.100000)" fill="#9333ea" stroke="none"> <path d="M914 2720 c-169 -19 -356 -69 -457 -122 -70 -38 -130 -101 -165 -176 -25 -52 -27 -70 -30 -198 -3 -129 -1 -145 19 -188 12 -26 44 -66 70 -89 l49 -42 0 -65 c0 -135 48 -248 148 -352 l65 -68 -39 -42 c-86 -94 -147 -219 -170 -348 -16 -91 -19 -482 -4 -511 12 -21 50 -25 68 -7 9 9 12 76 12 237 0 261 11 328 66 439 21 40 62 100 93 133 l56 60 60 -25 c93 -38 201 -56 335 -56 134 0 242 18 335 56 l60 25 56 -60 c69 -75 113 -156 139 -257 17 -66 20 -111 20 -309 0 -244 2 -255 47 -255 41 0 45 26 40 284 -3 184 -8 255 -21 301 -25 93 -90 214 -147 278 l-52 59 60 59 c101 100 153 223 153 361 0 58 3 71 22 86 99 77 122 140 116 311 -3 104 -7 123 -35 181 -69 148 -213 232 -484 285 -97 19 -377 28 -485 15z m426 -95 c127 -19 227 -48 308 -89 82 -42 128 -85 158 -151 21 -44 24 -65 24 -170 0 -132 -12 -171 -61 -208 -63 -46 -171 -27 -210 37 -16 27 -19 52 -19 191 0 184 -4 203 -36 211 -49 13 -54 -4 -54 -193 0 -191 5 -214 60 -277 39 -44 88 -71 148 -81 48 -8 48 -9 32 -115 -15 -91 -69 -199 -128 -250 -152 -135 -430 -182 -701 -119 -212 49 -343 181 -371 374 -15 106 -16 102 43 115 91 19 162 86 186 175 14 51 14 330 1 356 -12 21 -50 25 -68 7 -8 -8 -12 -62 -12 -177 0 -183 -8 -215 -63 -255 -38 -28 -130 -28 -170 -2 -49 33 -57 62 -57 208 0 118 3 139 24 183 42 92 125 144 302 191 51 14 132 31 181 38 119 19 365 19 483 1z"/> <path d="M874 2030 c-28 -11 -54 -48 -54 -76 0 -29 34 -70 65 -78 29 -7 79 15 89 39 27 73 -34 143 -100 115z"/> <path d="M1243 2030 c-37 -15 -54 -69 -37 -115 10 -24 60 -46 89 -39 32 8 65 49 65 81 0 29 -51 83 -77 82 -10 0 -28 -4 -40 -9z"/> <path d="M986 1785 c-48 -44 -33 -79 62 -140 l42 -28 65 44 c54 36 65 49 65 72 0 16 -10 38 -25 52 -21 22 -33 25 -103 25 -70 0 -82 -3 -106 -25z"/> </g> </svg> 