<?xml version="1.0" standalone="no"?>
<!DOCTYPE svg PUBLIC "-//W3C//DTD SVG 20010904//EN"
 "http://www.w3.org/TR/2001/REC-SVG-20010904/DTD/svg10.dtd">
<svg version="1.0" xmlns="http://www.w3.org/2000/svg"
 width="300.000000pt" height="279.000000pt" viewBox="0 0 300.000000 279.000000"
 preserveAspectRatio="xMidYMid meet">
<metadata>
Created by potrace 1.10, written by Peter Selinger 2001-2011
</metadata>
<g transform="translate(0.000000,279.000000) scale(0.100000,-0.100000)"
fill="#fafafa" stroke="none">
<path d="M947 2640 c-119 -75 -158 -231 -92 -366 86 -176 263 -192 354 -32 74
129 56 272 -46 370 -70 67 -140 76 -216 28z m148 -107 c62 -67 69 -162 18
-241 -36 -55 -68 -69 -102 -45 -34 25 -81 118 -81 160 0 74 58 153 111 153 18
0 38 -10 54 -27z"/>
<path d="M480 2498 c-65 -33 -90 -82 -90 -178 0 -91 21 -143 76 -188 128 -106
266 -102 322 8 60 120 -2 283 -135 349 -67 34 -120 36 -173 9z m130 -110 c59
-31 82 -65 88 -131 5 -66 -9 -97 -45 -97 -41 0 -113 39 -134 74 -25 40 -26
132 -2 158 21 24 39 23 93 -4z"/>
<path d="M1365 2373 c-51 -26 -113 -93 -136 -147 -57 -134 38 -326 162 -326
73 0 161 68 200 154 35 78 21 204 -32 275 -42 58 -131 78 -194 44z m114 -119
c33 -41 37 -105 11 -159 -25 -51 -70 -88 -103 -83 -15 2 -29 18 -44 48 -39 76
-26 140 37 194 40 33 73 33 99 0z"/>
<path d="M206 2100 c-80 -71 -62 -243 35 -324 150 -127 319 -84 319 80 0 151
-117 274 -262 274 -50 0 -62 -4 -92 -30z m150 -89 c49 -22 80 -60 95 -114 13
-47 0 -87 -28 -87 -28 1 -96 35 -120 61 -29 33 -46 100 -33 133 11 31 30 32
86 7z"/>
<path d="M878 2101 c-80 -26 -155 -100 -201 -200 -17 -36 -62 -120 -99 -185
-73 -129 -84 -169 -76 -271 6 -71 44 -151 86 -182 41 -30 100 -46 166 -46 51
1 72 8 176 62 l118 61 150 0 c149 0 149 0 189 29 51 37 82 80 99 138 43 144
-15 265 -170 355 -39 23 -108 77 -153 120 -108 103 -206 144 -285 119z m118
-121 c14 -6 58 -41 96 -77 38 -37 111 -95 161 -128 50 -33 102 -75 114 -94 41
-62 25 -164 -33 -210 -26 -21 -36 -22 -165 -19 l-138 3 -125 -64 c-116 -59
-129 -63 -176 -59 -79 8 -120 60 -120 151 0 59 13 94 78 206 30 52 66 120 79
150 34 78 65 115 115 140 42 21 60 21 114 1z"/>
<path d="M1867 1496 c-51 -19 -72 -39 -102 -101 -55 -112 -40 -219 44 -305 55
-56 123 -86 176 -76 114 22 182 212 121 341 -52 112 -153 172 -239 141z m91
-116 c46 -28 76 -95 68 -151 -9 -62 -40 -109 -70 -109 -32 0 -72 34 -96 81
-32 61 -23 128 22 177 26 27 34 27 76 2z"/>
<path d="M2330 1419 c-55 -25 -114 -80 -143 -134 -17 -32 -21 -57 -21 -130 0
-79 3 -97 27 -143 35 -66 75 -92 142 -92 65 0 123 28 180 85 65 64 89 122 88
210 -1 180 -124 272 -273 204z m136 -110 c12 -14 19 -40 22 -84 4 -56 1 -70
-22 -109 -30 -51 -101 -99 -138 -94 -59 8 -79 167 -29 237 48 67 129 92 167
50z"/>
<path d="M1496 1259 c-120 -35 -162 -244 -72 -362 45 -59 119 -107 166 -107
45 0 97 33 124 79 30 52 35 183 9 242 -47 106 -147 172 -227 148z m121 -175
c26 -45 29 -100 9 -149 -17 -41 -36 -44 -78 -13 -66 46 -84 152 -36 213 l20
26 31 -19 c18 -10 42 -36 54 -58z"/>
<path d="M2589 1007 c-93 -35 -150 -91 -175 -173 -51 -171 40 -299 190 -265
141 31 235 158 224 299 -5 56 -25 91 -71 126 -33 24 -119 31 -168 13z m119
-109 c16 -16 15 -91 -2 -133 -28 -66 -143 -117 -180 -79 -21 21 -19 100 5 149
27 56 143 97 177 63z"/>
<path d="M1971 960 c-29 -11 -60 -25 -69 -32 -10 -7 -43 -34 -74 -60 -32 -26
-102 -78 -156 -117 -124 -88 -169 -152 -192 -271 -19 -100 32 -194 134 -248
50 -26 54 -27 202 -24 l152 3 111 -58 c96 -50 119 -58 164 -57 92 1 184 70
229 172 39 87 9 223 -69 316 -31 37 -65 106 -88 176 -59 179 -190 255 -344
200z m179 -137 c23 -24 50 -73 73 -133 21 -52 55 -120 77 -150 52 -71 72 -115
77 -170 4 -38 0 -51 -26 -88 -33 -44 -84 -82 -113 -82 -9 0 -67 26 -130 57
l-113 58 -160 0 c-148 0 -163 2 -196 22 -65 41 -76 106 -31 194 17 34 45 68
78 94 286 224 327 249 389 241 30 -3 49 -15 75 -43z"/>
</g>
</svg>
